<?xml version="1.0" encoding="utf-8"?>
<!-- Generator: Adobe Illustrator 22.0.1, SVG Export Plug-In . SVG Version: 6.00 Build 0)  -->
<svg version="1.1" id="Layer_1" xmlns="http://www.w3.org/2000/svg" xmlns:xlink="http://www.w3.org/1999/xlink" x="0px" y="0px"
	 viewBox="0 0 256 256" style="enable-background:new 0 0 256 256;" xml:space="preserve">
<style type="text/css">
	.st0{fill:#FFFFFF;}
</style>
<rect width="256" height="256"/>
<path class="st0" d="M178,105.7c-0.6-26.5-22.3-48.2-48.8-48.8c-28.2-0.6-51.2,22-51.2,50c0,13.8,5.6,26.3,14.6,35.3
	c0.8,0.8,1.6,1.5,2.4,2.3l51.3,51.3c4.4,4.4,11.4,4.4,15.7,0s4.4-11.4,0-15.7l-24.2-24.2l0,0l-28.4-28.4c-0.5-0.5-0.9-1-1.3-1.5
	c-5.4-5.5-8.1-12.9-7.7-20.6c0.8-13.7,11.8-24.9,25.6-25.8c16.1-1.1,29.4,11.6,29.4,27.4c0,6.1-2,11.7-5.4,16.3
	c-3.3,4.5-3,10.8,1.1,14.8c4.8,4.8,12.8,4.4,16.9-1.1C174.5,128.2,178.3,117.4,178,105.7z"/>
</svg>
