<?xml version="1.0" encoding="utf-8"?>
<!-- Generator: Adobe Illustrator 22.0.1, SVG Export Plug-In . SVG Version: 6.00 Build 0)  -->
<svg version="1.1" id="Layer_1" xmlns="http://www.w3.org/2000/svg" xmlns:xlink="http://www.w3.org/1999/xlink" x="0px" y="0px"
	 viewBox="0 0 142 202" style="enable-background:new 0 0 142 202;" xml:space="preserve">
<style type="text/css">
	.st0{fill:#FFFFFF;}
</style>
<path class="st0" d="M142,69.3C141.1,31.6,110.4,0.9,72.7,0C32.7-0.9,0,31.2,0,71c0,19.6,7.9,37.4,20.8,50.2
	c1.1,1.1,2.3,2.2,3.4,3.2l72.9,72.9c6.2,6.2,16.2,6.2,22.3,0s6.2-16.2,0-22.3l-34.4-34.4c0,0,0,0,0,0l-40.4-40.4
	c-0.7-0.7-1.3-1.4-1.8-2.1c-7.6-7.8-11.5-18.3-10.9-29.3c1.1-19.5,16.8-35.4,36.3-36.7C91,30.6,110,48.6,110,71
	c0,8.6-2.8,16.6-7.6,23.1c-4.7,6.4-4.2,15.3,1.5,21c6.8,6.8,18.2,6.2,24-1.5C137,101.3,142.4,85.9,142,69.3z"/>
</svg>
