<?xml version="1.0" standalone="no"?>
<!DOCTYPE svg PUBLIC "-//W3C//DTD SVG 1.1//EN" "http://www.w3.org/Graphics/SVG/1.1/DTD/svg11.dtd" >
<svg xmlns="http://www.w3.org/2000/svg">
<metadata>Generated by IcoMoon</metadata>
<defs>
<font id="icomoon" horiz-adv-x="1024">
<font-face units-per-em="1024" ascent="960" descent="-64" />
<missing-glyph horiz-adv-x="1024" />
<glyph unicode="&#x20;" horiz-adv-x="512" d="" />
<glyph unicode="&#xe900;" glyph-name="arrow" d="M3.631 680.916l58.618 56.024 449.751-463.238 451.307 464.794 34.756-36.312 22.306-21.268-508.369-522.894-508.369 522.894z" />
<glyph unicode="&#xe901;" glyph-name="chat" d="M170.667 524.8h221.867c10.24 0 17.067 6.827 17.067 17.067s-6.827 17.067-17.067 17.067h-221.867c-10.24 0-17.067-6.827-17.067-17.067s6.827-17.067 17.067-17.067zM614.4 456.533h-443.733c-10.24 0-17.067-6.827-17.067-17.067s6.827-17.067 17.067-17.067h443.733c10.24 0 17.067 6.827 17.067 17.067s-6.827 17.067-17.067 17.067zM614.4 354.133h-443.733c-10.24 0-17.067-6.827-17.067-17.067s6.827-17.067 17.067-17.067h443.733c10.24 0 17.067 6.827 17.067 17.067s-6.827 17.067-17.067 17.067zM923.307 917.333h-583.68c-56.32 0-100.693-46.080-100.693-100.693v-87.040h-138.24c-56.32 0-100.693-46.080-100.693-100.693v-360.107c0-56.32 46.080-100.693 100.693-100.693h104.107v-170.667c0-6.827 5.12-13.653 10.24-15.36 1.707 0 3.413-1.707 6.827-1.707 5.12 0 8.533 1.707 11.947 5.12l165.547 182.613 283.307 1.707c56.32 0 100.693 46.080 100.693 100.693v1.707l90.453-98.987c3.413-3.413 8.533-5.12 11.947-5.12 1.707 0 3.413 0 6.827 1.707 6.827 1.707 10.24 8.533 10.24 15.36v170.667h18.773c56.32 0 100.693 46.080 100.693 100.693v358.4c1.707 56.32-44.373 102.4-98.987 102.4zM750.933 268.8c0-37.547-30.72-66.56-66.56-66.56l-291.84-1.707c-5.12 0-8.533-1.707-11.947-5.12l-141.653-155.307v143.36c0 10.24-6.827 17.067-17.067 17.067h-121.173c-37.547 0-66.56 30.72-66.56 66.56v360.107c0 37.547 30.72 66.56 66.56 66.56h155.307c0 0 0 0 0 0l428.373 1.707c37.547 0 66.56-30.72 66.56-66.56v-360.107zM989.867 454.827c0-37.547-30.72-66.56-66.56-66.56h-35.84c-10.24 0-17.067-6.827-17.067-17.067v-143.36l-85.333 93.867v307.2c0 56.32-46.080 100.693-100.693 100.693h-411.307v87.040c0 37.547 30.72 66.56 66.56 66.56l581.973-1.707c0 0 0 0 0 0 37.547 0 66.56-30.72 66.56-66.56l1.707-360.107z" />
<glyph unicode="&#xe902;" glyph-name="conversations" d="M204.8 669.867h256c10.24 0 17.067 6.827 17.067 17.067s-6.827 17.067-17.067 17.067h-256c-10.24 0-17.067-6.827-17.067-17.067s6.827-17.067 17.067-17.067zM785.067 567.467h-580.267c-10.24 0-17.067-6.827-17.067-17.067s6.827-17.067 17.067-17.067h580.267c10.24 0 17.067 6.827 17.067 17.067s-6.827 17.067-17.067 17.067zM785.067 430.933h-580.267c-10.24 0-17.067-6.827-17.067-17.067s6.827-17.067 17.067-17.067h580.267c10.24 0 17.067 6.827 17.067 17.067s-6.827 17.067-17.067 17.067zM921.6 925.867h-819.2c-56.32 0-102.4-46.080-102.4-102.4v-563.2c0-56.32 46.080-102.4 102.4-102.4h136.533v-170.667c0-6.827 5.12-13.653 10.24-15.36 1.707 0 3.413-1.707 6.827-1.707 5.12 0 8.533 1.707 11.947 5.12l165.547 182.613h488.107c56.32 0 102.4 46.080 102.4 102.4v563.2c0 56.32-46.080 102.4-102.4 102.4zM989.867 260.267c0-37.547-30.72-68.267-68.267-68.267h-457.387l61.44 71.68c6.827 6.827 5.12 17.067-1.707 23.893s-17.067 5.12-23.893-1.707l-85.333-98.987-141.653-155.307v143.36c0 10.24-6.827 17.067-17.067 17.067h-153.6c-37.547 0-68.267 30.72-68.267 68.267v563.2c0 37.547 30.72 68.267 68.267 68.267h819.2c37.547 0 68.267-30.72 68.267-68.267v-563.2z" />
<glyph unicode="&#xe903;" glyph-name="crop" d="M1024 215.273v-54.759h-231.815v-224.513h-54.759v224.513h-458.153c-30.3 0-54.759 24.459-54.759 54.759v459.979h-224.513v54.759h224.513v229.989h54.759v-744.727h744.727zM737.426 280.984h54.759v407.957c0 22.634-18.436 41.070-41.070 41.070h-406.132v-54.759h392.442v-394.267z" />
<glyph unicode="&#xe904;" glyph-name="cross" d="M1024 899.765l-59.399 59.231-452.601-451.765-452.601 451.765-59.399-59.231 452.601-451.765-452.601-451.765 59.399-59.231 452.601 451.765 452.601-451.765 59.399 59.231-452.601 451.765 452.601 451.765z" />
<glyph unicode="&#xe905;" glyph-name="edit" d="M995.328 803.669l-127.659 127.659c-18.091 18.432-44.032 28.672-72.363 28.672-37.205 0-75.435-17.067-105.131-46.421l-608.256-608.597c-3.072-3.072-5.12-6.827-6.144-10.923l-75.093-330.411c-1.707-7.509 0.683-15.36 6.144-20.821 4.096-4.096 9.899-6.485 16.043-6.485 1.707 0 3.413 0 5.12 0.683l330.411 75.093c4.096 1.024 7.851 3.072 10.923 6.144l608.256 608.256c29.696 29.355 46.421 67.584 46.421 104.789 0 28.331-10.24 53.931-28.672 72.363zM230.4 134.997l431.104 431.104 95.915-95.915-393.557-393.899c-47.104 2.731-94.208 25.259-133.461 58.709zM140.288 299.861l393.899 393.557 95.573-95.573-431.104-431.104c-33.451 38.912-55.637 86.357-58.368 133.12zM225.621 139.435c-7.851 6.827-15.019 14.336-22.187 22.187l22.187-22.187zM566.272 725.504l63.147 63.147 223.232-223.232-63.147-63.147-223.232 223.232zM108.203 233.643c29.355-84.651 104.448-159.744 189.099-189.44l-245.077-55.637 55.979 245.077zM945.835 658.261l-61.099-61.099-223.232 223.232 60.757 61.099c20.821 20.821 48.128 33.109 73.045 33.109 11.605 0 27.989-2.731 40.619-15.36l127.659-127.659c12.629-12.629 15.36-29.013 15.36-40.277 0-24.917-12.629-52.224-33.109-73.045z" />
<glyph unicode="&#xe906;" glyph-name="facebook" d="M376.411 761.676c0-25.713 0-140.946 0-140.946h-103.329v-172.373h103.329v-512.357h212.133v512.357h142.374c0 0 13.333 82.615 19.761 173.087-18.571 0-161.421 0-161.421 0s0 100.233 0 117.852c0 17.618 23.094 41.427 45.95 41.427s70.949 0 115.709 0c0 23.57 0 104.519 0 179.515-59.521 0-127.375 0-157.136 0-222.609-0.238-217.371-172.849-217.371-198.562z" />
<glyph unicode="&#xe907;" glyph-name="gift" d="M948.398 708.357h-43.792c31.591 26.145 51.636 65.58 51.636 109.59 0 78.434-63.837 142.271-142.271 142.271-37.474 0-72.987-14.597-99.786-40.96l-123.098-121.791c-12.854 30.938-43.357 52.725-79.088 52.725-35.513 0-66.015-21.787-78.87-52.725l-123.316 121.791c-26.798 26.145-62.311 40.742-99.786 40.742-78.434 0-142.271-63.837-142.271-142.271 0-44.010 20.044-83.445 51.636-109.59h-43.792c-8.933 0-16.34-7.408-16.34-16.34v-217.872c0-8.933 7.408-16.34 16.34-16.34h27.234v-505.464c0-8.933 7.408-16.34 16.34-16.34h785.648c8.933 0 16.34 7.408 16.34 16.34v505.464h27.234c8.933 0 16.34 7.408 16.34 16.34v218.090c0 8.933-7.19 16.34-16.34 16.34zM597.406 757.814l139.656 138.131c20.698 20.262 47.932 31.374 76.909 31.374 60.351 0 109.59-49.239 109.59-109.59s-49.239-109.59-109.59-109.59h-216.565v49.675zM459.275 764.569c0 29.195 23.748 52.725 52.725 52.725s52.725-23.748 52.725-52.725v-56.429h-105.668l0.218 56.429zM473.872 675.677h130.723v-477.794l-84.099 50.546c-5.229 3.050-11.547 3.050-16.776 0l-84.099-50.546v477.794h54.25zM100.439 817.729c0 60.351 49.239 109.59 109.59 109.59 28.977 0 56.211-11.111 76.691-31.374l139.656-138.131v-49.457h-216.347c-60.351 0-109.59 49.021-109.59 109.372zM932.058 490.485h-245.76c-8.933 0-16.34-7.408-16.34-16.34s7.408-16.34 16.34-16.34h202.186v-489.123h-752.967v489.123h202.186c8.933 0 16.34 7.408 16.34 16.34s-7.408 16.34-16.34 16.34h-245.76v185.191h294.781v-506.553c0-5.883 3.268-11.329 8.279-14.162 5.229-2.832 11.329-2.832 16.558 0.218l100.439 60.351 100.439-60.351c2.614-1.525 5.447-2.397 8.497-2.397 2.832 0 5.447 0.654 8.061 2.179 5.229 2.832 8.279 8.279 8.279 14.162v506.553h294.781v-185.191z" />
<glyph unicode="&#xe908;" glyph-name="google-plus" d="M359.361 380.285h160.014c-28.159-79.337-104.143-136.325-193.089-135.654-107.942 0.894-197.336 87.158-201.582 195.101-4.47 115.764 88.276 211.415 203.146 211.415 52.519 0 100.344-19.89 136.548-52.742 8.492-7.822 21.454-7.822 29.947 0l58.776 55.2c9.163 8.716 9.163 23.242 0 31.958-57.212 54.306-134.090 88.052-218.79 89.617-180.798 3.799-332.99-144.147-334.331-324.945-1.341-181.915 145.935-329.861 327.626-329.861 174.764 0 317.57 136.772 327.179 309.301 0.223 2.235 0.447 75.090 0.447 75.090h-295.892c-12.068 0-21.901-9.833-21.901-21.901v-80.454c0-12.292 9.833-22.125 21.901-22.125zM926.338 497.39v78.666c0 10.727-8.716 19.22-19.22 19.22h-66.151c-10.727 0-19.22-8.716-19.22-19.22v-78.666h-78.666c-10.727 0-19.22-8.716-19.22-19.22v-66.151c0-10.727 8.716-19.22 19.22-19.22h78.666v-78.666c0-10.727 8.716-19.22 19.22-19.22h66.151c10.727 0 19.22 8.716 19.22 19.22v78.666h78.666c10.727 0 19.22 8.716 19.22 19.22v66.151c0 10.727-8.716 19.22-19.22 19.22h-78.666z" />
<glyph unicode="&#xe909;" glyph-name="heart-plus" d="M670.4 107.2c-83.2-64-150.4-102.4-150.4-102.4l-8-6.4-8 4.8c-1.6 0-126.4 73.6-251.2 185.6-168 152-252.8 299.2-252.8 436.8 0 134.4 96 272 256 272 118.4 0 217.6-65.6 256-158.4 38.4 92.8 137.6 158.4 256 158.4 160 0 256-137.6 256-272 0-46.4-9.6-94.4-30.4-144-8 6.4-17.6 14.4-27.2 19.2 16 40 24 81.6 24 123.2 0 118.4-83.2 240-224 240-115.2 0-240-80-240-208h-32c0 128-124.8 208-240 208-140.8 0-224-121.6-224-240 0-284.8 416-550.4 480-588.8 19.2 11.2 72 44.8 136 94.4 8-8 16-16 24-22.4zM712 288h107.2v118.4h32v-118.4h107.2v-30.4h-107.2v-118.4h-32v118.4h-107.2v30.4z" />
<glyph unicode="&#xe90a;" glyph-name="heart" d="M768 897.6c-118.4 0-217.6-65.6-256-158.4-38.4 92.8-137.6 158.4-256 158.4-160 0-256-137.6-256-272 0-137.6 84.8-284.8 252.8-435.2 123.2-112 249.6-185.6 251.2-185.6l8-4.8 8 4.8c1.6 0 126.4 73.6 251.2 185.6 168 150.4 252.8 297.6 252.8 435.2 0 132.8-96 272-256 272zM512 35.2c-64 38.4-480 304-480 588.8 0 118.4 83.2 240 224 240 115.2 0 240-80 240-208h32c0 128 124.8 208 240 208 140.8 0 224-121.6 224-240 0-283.2-416-548.8-480-588.8z" />
<glyph unicode="&#xe90b;" glyph-name="locked" d="M815.407 578.844v106.193c0 151.704-136.533 274.963-303.407 274.963s-303.407-123.259-303.407-274.963v-106.193c-64.474-11.378-113.778-66.37-113.778-134.637v-369.778c0-75.852 60.681-136.533 136.533-136.533h559.407c75.852 0 136.533 60.681 136.533 136.533v369.778c1.896 66.37-47.407 123.259-111.881 134.637zM246.519 685.037c0 130.844 119.467 237.037 265.481 237.037s265.481-106.193 265.481-237.037v-104.296h-530.963v104.296zM891.259 72.533c0-54.993-43.615-98.607-98.607-98.607h-561.304c-54.993 0-98.607 43.615-98.607 98.607v371.674c0 54.993 43.615 98.607 98.607 98.607h559.407c54.993 0 98.607-43.615 98.607-98.607v-371.674zM512 429.037c-41.719 0-75.852-34.133-75.852-75.852v-113.778c0-41.719 34.133-75.852 75.852-75.852s75.852 34.133 75.852 75.852v113.778c0 41.719-34.133 75.852-75.852 75.852zM549.926 239.407c0-20.859-17.067-37.926-37.926-37.926s-37.926 17.067-37.926 37.926v113.778c0 20.859 17.067 37.926 37.926 37.926s37.926-17.067 37.926-37.926v-113.778z" />
<glyph unicode="&#xe90c;" glyph-name="mail-hearts" d="M685.393 478.283c-7.155 47.277-41.655 85.099-85.61 93.788-35.777 7.155-70.533-6.389-95.832-36.544-25.555 30.155-60.055 43.7-95.832 36.544-43.955-8.689-78.199-46.511-85.61-93.788-5.878-38.333-0.511-137.743 174.031-233.064 2.3-1.278 4.856-1.789 7.411-1.789v0 0c2.556 0 5.111 0.511 7.411 1.789 174.543 95.321 179.909 194.731 174.031 233.064zM503.95 276.396c-150.521 84.588-155.887 166.109-151.032 197.542 5.367 34.755 29.9 62.099 61.077 68.488 29.644 5.878 57.755-8.944 76.921-40.633 4.344-7.155 13.8-9.455 20.955-5.111 2.3 1.278 3.833 3.067 5.111 5.111v0c19.166 31.689 47.277 46.511 76.921 40.633 31.433-6.133 55.966-33.733 61.077-68.488 4.856-31.689-0.511-113.21-151.032-197.542zM329.152 842.701c-14.311 19.678-38.588 28.877-60.822 22.744-15.333-4.344-27.089-15.078-32.966-30.155-15.589 3.833-31.177 0.767-43.7-8.944-18.144-14.311-25.044-39.355-17.378-62.355 5.878-17.633 29.389-58.777 120.621-61.333 0.256 0 0.256 0 0.511 0v0c4.856 0 9.711 2.3 12.778 6.644 51.366 75.133 31.944 118.321 20.955 133.399zM287.497 733.325c-45.488 2.811-76.666 17.633-84.077 40.122-4.089 12.522 0.511 23.511 7.155 28.622 7.411 5.878 17.122 5.367 27.6-1.022v0c2.044-1.278 4.344-2.044 6.9-2.3 8.433-0.511 15.844 5.622 16.355 14.055 1.022 12.267 6.389 20.444 15.333 23 8.178 2.3 19.678-0.256 27.6-10.989 13.8-19.166 7.411-53.155-16.866-91.488zM707.626 945.178c-15.078 5.878-30.666 4.089-44.466-4.344-10.222 12.522-24.278 19.678-40.377 19.166-23-0.511-43.7-16.355-51.366-39.355-5.878-17.633-12.011-64.655 59.544-121.643 2.811-2.3 6.133-3.322 9.455-3.322v0 0c1.533 0 3.322 0.256 4.856 0.767 86.632 29.389 96.855 75.644 97.366 94.299 0.256 24.278-13.8 46-35.011 54.433zM643.226 828.135c-34.5 29.389-50.599 60.055-42.933 82.544 4.344 12.522 14.567 18.4 23 18.655 9.455 0.256 16.866-5.878 21.211-17.378v0c0.767-2.3 2.3-4.344 4.089-5.878 6.389-5.622 16.1-4.856 21.722 1.533 8.178 9.2 17.378 12.522 26.066 9.2 7.922-3.067 15.589-12.011 15.333-25.3-0.511-24.022-25.811-47.277-68.488-63.377zM912.323 648.992c4.6 39.1-14.567 76.41-47.533 93.021-26.066 13.033-55.199 10.478-81.266-5.878-13.8 27.6-37.822 44.466-66.699 46.511-32.966 2.3-64.91-15.333-82.799-44.977l-32.711 34.5c1.278 21.722-3.578 37.822-7.922 47.277-14.055 31.177-44.977 50.344-76.921 47.788-24.533-1.789-44.466-15.844-56.733-38.588-22.233 13.033-46.766 14.567-68.488 3.322-28.622-14.567-44.977-47.022-40.633-81.010 1.022-7.155 3.067-17.378 8.689-28.877l-53.922-56.733c-13.544 8.178-29.644 11.5-45.488 8.178-19.166-3.833-33.989-16.611-41.911-35.011-18.911 7.155-38.333 5.367-54.433-5.622-22.233-15.078-32.455-43.7-25.3-71.299 2.556-10.222 9.455-26.833 27.6-42.933 0 0-36.544-38.333-36.544-38.588-11.5-13.289-17.889-30.155-17.889-47.788v-423.707c0-40.122 32.711-73.088 73.088-73.088h639.904c40.122 0 73.088 32.711 73.088 73.088v423.962c0 17.633-6.389 34.5-17.889 47.788 0 0.256-55.966 58.777-55.966 58.777 71.044 38.333 85.866 86.632 88.677 109.888zM405.051 804.624c15.844 8.178 34.5 4.089 50.855-11.244v0c1.789-1.533 3.833-2.811 6.389-3.578 8.178-2.3 16.611 2.556 18.911 10.733 5.878 21.722 19.678 34.755 37.566 36.288 19.166 1.533 37.822-10.478 46.511-29.9 17.122-37.566-4.856-91.743-58.266-146.432-74.11 18.655-121.132 53.666-125.988 94.555-2.556 20.7 7.155 40.888 24.022 49.577zM180.676 607.593c10.733 7.411 24.278 5.878 37.822-3.833 6.9-4.856 16.355-3.322 21.466 3.322 1.533 2.044 2.3 4.344 2.811 6.9v0c2.3 16.611 10.733 27.089 23.511 29.644 13.544 2.811 28.366-4.344 36.544-17.633 16.355-26.577 4.856-69.51-30.155-116.277-58.010 7.411-96.855 29.389-104.521 59.544-4.344 15.078 1.022 30.666 12.522 38.333zM141.832 432.539c0 4.6 0.767 8.944 2.3 13.289l227.698-215.687-228.209-233.575c-1.278 3.833-1.789 8.178-1.789 12.522v423.451zM503.95-33.334h-319.952c-7.667 0-14.822 2.044-21.211 5.622l231.020 236.642 99.41-94.299c0 0 4.6-4.089 10.478-4.089 0 0 0 0 0 0v0c3.833 0 7.667 1.278 10.478 4.089l99.41 94.299 231.020-236.642c-6.133-3.578-13.544-5.622-21.211-5.622h-319.441zM866.068 432.539v-423.707c0-4.344-0.767-8.433-1.789-12.522l-227.953 233.831 227.698 215.687c1.278-4.344 2.044-8.689 2.044-13.289zM845.624 470.872l-341.674-323.785-341.674 323.785 29.133 30.666c20.189-10.478 48.044-19.166 86.377-23 0.511 0 1.022 0 1.533 0v0c4.6 0 8.944 2.044 12.011 5.878 68.488 86.377 49.066 139.276 37.566 158.187-0.511 0.767-0.767 1.278-1.278 2.044l49.322 51.622c21.722-25.044 61.077-51.366 131.865-67.466 1.022-0.256 2.3-0.511 3.322-0.511v0 0c3.833 0 7.667 1.533 10.733 4.344 40.377 39.355 61.333 74.11 71.299 102.988l28.111-29.389c-7.922-38.077-2.044-107.077 91.488-197.287 3.067-2.811 6.9-4.344 10.733-4.344v0 0c1.278 0 2.3 0.256 3.578 0.511 25.3 5.878 47.277 13.033 66.188 20.7l51.366-54.944zM728.837 536.549c-65.677 65.677-92.766 131.865-72.066 177.865 10.733 24.278 34.244 39.355 58.010 37.566 22.489-1.533 39.866-17.889 47.277-44.977v0c0.767-2.3 1.789-4.6 3.578-6.389 5.878-6.133 15.589-6.389 21.722-0.511 20.189 19.166 43.444 24.533 63.633 14.311 21.466-10.733 33.733-35.522 30.666-61.844-5.878-50.088-62.61-93.277-152.821-116.021z" />
<glyph unicode="&#xe90d;" glyph-name="photo-camera" d="M905.551 43.709h-787.102c-65.362 0-118.449 52.78-118.449 118.142v479.933c0 65.362 53.087 118.449 118.449 118.449h160.489l14.116 47.564c5.83 26.083 29.459 45.109 57.383 45.109h323.126c27.004 0 51.246-19.025 57.383-45.109l0.307-1.534 12.888-45.723h161.41c65.362 0 118.449-53.087 118.449-118.449v-479.933c0-65.669-53.087-118.449-118.449-118.449zM127.348 714.51c-42.654 0-77.022-34.675-77.022-77.022v-469.193c0-42.654 34.675-77.022 77.022-77.022h769.304c42.654 0 77.022 34.675 77.022 77.022v469.193c0 42.654-34.675 77.022-77.022 77.022h-186.879l-21.174 75.181c-1.841 8.899-9.82 15.036-18.719 15.036h-315.761c-9.206 0-16.877-6.137-18.719-15.036l-22.401-75.181h-185.652zM511.847 209.108c-112.619 0-204.064 91.445-204.064 204.064s91.445 204.064 204.064 204.064 204.064-91.445 204.064-204.064-91.445-204.064-204.064-204.064zM511.847 577.343c-90.524 0-164.171-73.647-164.171-164.171s73.647-164.171 164.171-164.171 164.171 73.647 164.171 164.171-73.647 164.171-164.171 164.171zM880.082 647.307c-20.253 0-36.517-16.264-36.517-36.517 0-19.946 16.264-36.517 36.517-36.517 19.946 0 36.517 16.264 36.517 36.517-0.307 20.253-16.571 36.517-36.517 36.517z" />
<glyph unicode="&#xe90e;" glyph-name="protection" d="M887.467 823.467c-249.173 0-360.107 129.707-361.813 131.413-6.827 8.533-20.48 8.533-25.6 0-1.707-1.707-112.64-131.413-363.52-131.413-10.24 0-17.067-6.827-17.067-17.067v-325.973c0-177.493 80.213-346.453 213.333-452.267 54.613-42.667 112.64-73.387 174.080-92.16 1.707 0 3.413 0 5.12 0s3.413 0 5.12 0c61.44 18.773 119.467 49.493 174.080 92.16 133.12 105.813 213.333 274.773 213.333 452.267v325.973c0 10.24-8.533 17.067-17.067 17.067zM870.4 480.427c0-167.253-75.093-327.68-201.387-424.96-49.493-39.253-102.4-66.56-157.013-83.627-54.613 17.067-107.52 46.080-157.013 83.627-126.293 98.987-201.387 257.707-201.387 424.96v308.907c208.213 5.12 322.56 93.867 358.4 128 35.84-34.133 150.187-124.587 358.4-128v-308.907zM353.28 459.947c-6.827 6.827-17.067 6.827-23.893 0s-6.827-17.067 0-23.893l136.533-136.533c3.413-3.413 6.827-5.12 11.947-5.12v0c5.12 0 8.533 1.707 11.947 5.12l238.933 273.067c6.827 6.827 5.12 17.067-1.707 23.893s-17.067 5.12-23.893-1.707l-226.987-257.707-122.88 122.88z" />
<glyph unicode="&#xe90f;" glyph-name="rotate-left" d="M213.333 511.916h-80.481c30.787 205.302 207.979 362.583 421.814 362.583 235.587 0 426.667-191.080 426.667-426.667 0-230.567-182.881-418.468-411.608-426.332v-42.667c252.319 7.864 454.275 214.839 454.275 468.999 0 259.179-210.154 469.333-469.333 469.333-237.427 0-433.861-176.356-464.983-405.25h-89.684l106.75-128 106.583 128z" />
<glyph unicode="&#xe910;" glyph-name="rotate-right" d="M917.25 383.916l106.75 128h-89.684c-31.122 228.894-227.556 405.25-464.983 405.25-259.179 0-469.333-210.154-469.333-469.333 0-254.159 201.956-461.135 454.275-468.999v42.667c-228.727 7.864-411.608 195.765-411.608 426.332 0 235.587 191.080 426.667 426.667 426.667 213.835 0 391.027-157.448 421.814-362.75h-80.481l106.583-127.833z" />
<glyph unicode="&#xe911;" glyph-name="search" d="M998.883-31.155l-287.879 299.472c73.419 73.419 119.789 173.887 119.789 285.947 0 224.121-181.615 405.736-405.736 405.736s-405.736-181.615-405.736-405.736 181.615-405.736 405.736-405.736c98.536 0 187.411 34.777 258.898 92.74l287.879-299.472c3.864-3.864 9.66-5.796 13.525-5.796s9.66 1.932 13.525 5.796c7.728 7.728 7.728 19.321 0 27.049zM425.057 187.17c-202.868 0-367.094 164.226-367.094 367.094s164.226 367.094 367.094 367.094 367.094-164.226 367.094-367.094-164.226-367.094-367.094-367.094z" />
<glyph unicode="&#xe912;" glyph-name="settings" d="M567.945-53.51h-107.395c-15.984 0-21.979 0-76.925 136.866l-42.459 17.483c-115.887-52.449-129.873-52.449-134.369-52.449h-8.991l-7.493 6.494-76.425 74.427c-11.489 11.489-15.485 15.485 43.957 150.353l-17.483 40.96c-140.363 49.951-140.363 55.945-140.363 72.429v105.397c0 16.484 0 21.979 139.863 75.926l17.483 40.96c-62.939 132.87-58.942 136.866-46.455 148.855l81.92 80.421 9.99 0.5c12.488 0 58.443-16.983 136.866-49.951l42.459 17.483c51.45 136.866 57.444 136.866 73.428 136.866h107.395c15.984 0 21.979 0 76.925-136.866l42.459-16.983c115.887 52.449 129.873 52.449 134.369 52.449h8.991l7.493-6.494 76.425-74.427c11.489-11.489 15.485-15.485-43.957-150.853l17.483-41.46c140.862-49.452 140.862-55.446 140.862-71.93v-105.397c0-15.984 0-21.979-139.863-75.926l-17.483-41.46c62.939-132.371 58.443-136.367 46.954-148.355l-82.919-80.921-10.49-0.5c-12.488 0-57.943 16.983-136.367 49.951l-42.958-17.483c-50.451-136.367-56.445-136.367-72.929-136.367zM471.54-10.053h84.917c9.491 19.98 30.97 72.429 47.454 117.885l3.497 8.991 77.424 30.97 8.492-3.497c45.955-19.481 100.402-41.46 121.881-47.953l59.442 58.443c-7.493 20.98-30.47 72.429-51.45 115.887l-3.996 8.991 31.969 76.425 8.492 3.497c46.455 17.982 100.402 39.961 120.382 49.951v81.42c-20.48 9.491-73.928 29.971-120.382 46.455l-8.991 2.997-31.969 76.425 3.996 8.492c19.98 44.457 41.959 97.405 48.952 118.884l-59.941 58.443c-19.481-6.494-73.428-29.971-118.884-50.95l-8.492-3.996-77.424 30.97-3.497 8.492c-18.482 45.456-40.96 98.404-51.45 117.885h-84.917c-9.99-19.98-30.97-72.429-47.454-117.885l-3.497-8.991-76.925-31.469-8.492 3.497c-45.955 19.481-100.901 41.46-121.881 47.953l-59.442-56.944c7.493-20.98 30.47-72.429 51.45-115.887l3.996-8.991-31.969-75.926-8.492-3.497c-46.455-17.982-100.402-39.961-120.382-49.951v-81.92c20.48-9.491 73.928-29.971 120.382-46.455l8.991-3.497 31.969-75.926-3.996-8.492c-19.98-44.457-41.959-97.405-48.952-118.384l59.941-58.443c19.481 6.993 73.428 29.971 118.884 50.95l8.492 3.996 76.925-31.469 3.497-8.492c18.482-46.455 41.46-99.403 51.45-118.884zM512 272.172c-98.903 0-178.825 78.923-178.825 175.828s80.421 175.329 178.825 175.329c98.404 0 178.825-78.923 178.825-175.329 0-96.905-80.421-175.828-178.825-175.828zM512 579.871c-74.927 0-135.368-58.942-135.368-131.871s60.94-131.871 135.368-131.871c74.427 0 135.368 59.442 135.368 131.871 0 72.929-60.94 131.871-135.368 131.871z" />
<glyph unicode="&#xe913;" glyph-name="twitter" d="M1024 765.407c-37.647-16.732-78.139-27.942-120.638-33.129 43.336 25.935 76.633 67.263 92.361 116.12-40.659-24.094-85.668-41.495-133.522-51.033-38.316 40.826-92.863 66.426-153.265 66.426-115.953 0-210.154-94.034-210.154-209.987 0-16.397 1.841-32.46 5.522-47.854-174.515 8.701-329.286 92.361-433.025 219.524-18.071-30.954-28.444-67.095-28.444-105.579 0-72.952 37.145-137.203 93.365-174.85-34.468 1.171-66.761 10.541-95.205 26.437v-2.677c0-101.731 72.45-186.729 168.492-205.971-17.569-4.685-36.141-7.362-55.383-7.362-13.553 0-26.604 1.339-39.488 3.848 26.771-83.493 104.241-144.23 196.267-145.903-71.78-56.387-162.468-89.851-260.852-89.851-16.899 0-33.631 1.004-50.029 2.844 93.030-59.733 203.294-94.536 321.924-94.536 386.342 0 597.668 320.084 597.668 597.668l-0.669 27.273c41.328 29.616 76.967 66.593 105.077 108.591z" />
<glyph unicode="&#xe914;" glyph-name="upload" d="M490.768 522.485v-266.268c0-11.486 9.398-20.884 20.884-20.884s20.884 9.398 20.884 20.884v266.268c0 11.486-9.398 20.884-20.884 20.884s-20.884-9.398-20.884-20.884zM631.037 430.249c5.221 0 10.79 2.088 14.619 6.265 8.005 8.005 8.005 21.232 0 29.585l-119.385 119.385c-8.005 8.005-21.232 8.005-29.585 0l-119.037-119.734c-8.005-8.005-8.005-21.232 0-29.585s21.232-8.005 29.585 0l104.767 104.767 104.767-104.767c3.829-3.829 9.050-5.917 14.271-5.917zM1020.519 278.842c0.696 4.177 1.044 8.005 1.392 12.182 0 0.696 0 1.044 0 1.74 0.348 4.177 0.696 8.005 1.044 12.182 0 0.348 0 1.044 0 1.392 0.348 4.177 0.348 8.354 0.348 12.878 0 122.17-82.491 225.893-196.307 256.87-0.348 0-0.348 0-0.696 0-3.133 0.696-6.613 1.74-9.746 2.436-0.696 0.348-1.392 0.348-2.436 0.696-2.785 0.696-5.569 1.044-8.354 1.74-1.392 0.348-2.436 0.348-3.829 0.696-2.436 0.348-4.873 0.696-7.657 1.044-1.392 0.348-3.133 0.348-4.525 0.696-9.398 145.49-130.872 260.699-278.45 260.699h-0.696c-147.579 0-269.052-115.209-278.45-260.699-1.392-0.348-3.133-0.348-4.525-0.696-2.436-0.348-5.221-0.696-7.657-1.044-1.392-0.348-2.436-0.348-3.829-0.696-2.785-0.696-5.569-1.044-8.354-1.74-0.696 0-1.392-0.348-2.436-0.696-3.133-0.696-6.613-1.392-9.746-2.436-0.348 0-0.348 0-0.696 0-108.596-30.281-189.346-127.739-194.915-244.688 0-0.348 0-1.044 0-1.392 0-3.829-0.348-7.309-0.348-11.138v0 0 0c0-4.177 0-8.702 0.348-12.878 0-0.348 0-1.044 0-1.392 0.348-4.177 0.696-8.005 1.044-12.182 0-0.696 0-1.044 0-1.74 0.348-4.177 1.044-8.005 1.392-12.182 0-0.348 0-0.696 0-1.044 10.094-64.74 43.508-123.562 95.369-165.678 0.696-0.696 1.392-1.044 2.088-1.392 45.596-36.199 103.375-58.126 166.026-58.126h491.116c62.651 0 120.43 21.928 166.026 58.126 0.696 0.348 1.392 1.044 2.088 1.392 51.861 42.116 85.275 100.938 95.369 165.678 0 0.696 0 1.044 0 1.392zM671.761 94.020h-405.493c-96.761 0-179.252 61.259-210.926 147.23 0 0.348 0 0.348-0.348 0.696-1.044 2.785-2.088 5.917-2.785 8.702-0.348 1.044-0.696 1.74-0.696 2.785-0.696 2.436-1.392 4.873-2.088 7.657-0.348 1.392-0.696 2.785-1.044 4.177-0.696 2.088-1.044 4.525-1.392 6.613-0.348 1.74-0.696 3.481-1.044 5.221-0.348 2.088-0.696 3.829-1.044 5.917s-0.696 4.177-1.044 6.265c-0.348 1.74-0.348 3.481-0.696 5.221-0.348 2.436-0.348 5.221-0.696 7.657 0 1.392-0.348 2.785-0.348 4.177-0.348 4.177-0.348 8.005-0.348 12.182v0c0 104.071 71.005 192.479 168.462 217.539 0.348 0 0.348 0 0.696 0.348 2.785 0.696 5.569 1.392 8.354 1.74 0.696 0 1.392 0.348 2.436 0.348 2.436 0.348 4.873 1.044 7.309 1.392 1.044 0.348 2.436 0.348 3.481 0.696 2.088 0.348 4.177 0.696 6.265 0.696 1.392 0.348 3.133 0.348 4.525 0.696 2.088 0.348 3.829 0.348 5.917 0.348 1.74 0 3.829 0.348 5.569 0.348 11.138 0.696 19.84 9.746 19.84 20.884 0 0.348 0 0.696 0 1.044 0.348 130.523 106.507 236.683 237.031 237.031 130.523-0.348 236.683-106.507 237.031-237.031 0-0.348 0-0.696 0-1.044 0-11.138 8.702-20.188 19.84-20.884 1.74 0 3.829-0.348 5.569-0.348 2.088 0 3.829-0.348 5.917-0.348 1.392 0 3.133-0.348 4.525-0.696 2.088-0.348 4.177-0.348 6.265-0.696 1.044-0.348 2.436-0.348 3.481-0.696 2.436-0.348 4.873-0.696 7.309-1.392 0.696 0 1.392-0.348 2.436-0.348 2.785-0.696 5.569-1.044 8.354-1.74 0.348 0 0.348 0 0.696-0.348 97.458-25.061 168.462-113.12 168.462-217.539v0c0-4.177 0-8.005-0.348-12.182 0-1.392-0.348-2.785-0.348-4.177-0.348-2.436-0.348-5.221-0.696-7.657-0.348-1.74-0.348-3.481-0.696-5.221-0.348-2.088-0.696-4.177-1.044-6.265s-0.696-4.177-1.044-5.917c-0.348-1.74-0.696-3.481-1.044-5.221-0.348-2.088-1.044-4.525-1.392-6.613-0.348-1.392-0.696-2.785-1.044-4.177-0.696-2.436-1.392-5.221-2.088-7.657-0.348-1.044-0.696-1.74-0.696-2.785-1.044-2.785-1.74-5.917-2.785-8.702 0-0.348 0-0.348-0.348-0.696-31.674-85.971-114.165-147.23-210.926-147.23h-85.275z" />
<glyph unicode="&#xe915;" glyph-name="user-search" d="M1018.793-25.817l-104.136 107.607c29.505 32.976 48.597 78.102 48.597 124.963 0 104.136-83.308 187.444-187.444 187.444s-185.708-83.308-185.708-185.708 83.308-187.444 187.444-187.444c41.654 0 81.573 13.885 112.814 38.183l104.136-109.342c3.471-3.471 8.678-5.207 12.149-5.207s8.678 1.736 12.149 5.207c6.942 6.942 6.942 17.356 0 24.298zM624.814 208.488c0 83.308 67.688 152.732 152.732 152.732s152.732-67.688 152.732-152.732-67.688-152.732-152.732-152.732-152.732 67.688-152.732 152.732zM477.288 31.458c-10.414 0-22.563 0-32.976 1.736-1.736 0-3.471 0-5.207 0-10.414 1.736-22.563 1.736-32.976 3.471 0 0-1.736 0-1.736 0-22.563 3.471-45.125 8.678-67.688 17.356 0 0-1.736 0-1.736 0-10.414 3.471-22.563 8.678-32.976 12.149 0 0 0 0 0 0-10.414 3.471-19.092 8.678-29.505 13.885-1.736 0-1.736 1.736-3.471 1.736-8.678 5.207-17.356 10.414-26.034 15.62-1.736 1.736-5.207 3.471-6.942 5.207-8.678 5.207-15.62 10.414-22.563 15.62 0 0-1.736 1.736-1.736 1.736s1.736 0 1.736 1.736l137.112 74.631c24.298 12.149 38.183 38.183 38.183 64.217v62.481l-3.471 5.207c0 0-38.183 46.861-52.068 107.607l-3.471 8.678-5.207 3.471c-8.678 5.207-13.885 13.885-13.885 24.298v60.746c0 8.678 3.471 15.62 10.414 20.827l5.207 5.207v98.929c0 0-5.207 41.654 24.298 76.366 24.298 27.769 67.688 43.39 128.434 43.39 59.010 0 102.4-13.885 126.698-43.39 29.505-32.976 24.298-76.366 24.298-76.366v-98.929l5.207-5.207c6.942-5.207 10.414-13.885 10.414-20.827v-60.746c0-12.149-8.678-24.298-20.827-27.769-8.678-3.471-13.885-12.149-12.149-20.827 3.471-8.678 12.149-13.885 20.827-12.149 26.034 8.678 45.125 32.976 45.125 60.746v60.746c0 15.62-5.207 29.505-15.62 41.654v81.573c1.736 8.678 3.471 59.010-32.976 102.4-31.241 36.447-83.308 55.539-154.468 55.539s-121.492-19.092-154.468-55.539c-36.447-41.654-32.976-91.986-32.976-102.4v-81.573c-10.414-12.149-15.62-26.034-15.62-41.654v-60.746c0-19.092 8.678-36.447 22.563-48.597 13.885-55.539 43.39-97.193 53.803-111.078v-50.332c0-13.885-6.942-27.769-20.827-34.712l-137.112-74.631c-5.207-1.736-8.678-5.207-13.885-8.678-85.044 81.573-142.319 199.593-142.319 329.763 0 242.983 197.858 442.576 442.576 442.576s442.576-199.593 442.576-442.576c0-10.414 6.942-17.356 17.356-17.356s17.356 6.942 17.356 17.356c0 262.075-213.478 477.288-477.288 477.288s-477.288-215.214-477.288-477.288c0-138.847 59.010-263.81 154.468-352.325v0l15.62-13.885c1.736 0 1.736-1.736 3.471-1.736 8.678-6.942 17.356-13.885 26.034-19.092 3.471-1.736 5.207-3.471 8.678-5.207 8.678-6.942 19.092-12.149 27.769-17.356 1.736-1.736 3.471-1.736 6.942-3.471 10.414-5.207 20.827-12.149 32.976-17.356 0 0 1.736 0 1.736-1.736 36.447-17.356 74.631-29.505 116.285-36.447 1.736 0 1.736 0 3.471 0 12.149-1.736 26.034-3.471 38.183-5.207 1.736 0 3.471 0 5.207 0 12.149-1.736 26.034-1.736 38.183-1.736 10.414 0 17.356 6.942 17.356 17.356s-8.678 15.62-19.092 15.62z" />
<glyph unicode="&#xe916;" glyph-name="user" d="M1024 448c0 282.996-229.004 512-512 512s-512-229.004-512-512c0-148.945 63.302-282.996 165.702-377.949v0l16.756-14.895c1.862 0 1.862-1.862 3.724-1.862 9.309-7.447 18.618-14.895 27.927-20.48 3.724-1.862 5.585-3.724 9.309-5.585 9.309-7.447 20.48-13.033 29.789-18.618 1.862-1.862 3.724-1.862 7.447-3.724 11.171-5.585 22.342-13.033 35.375-18.618 0 0 1.862 0 1.862-1.862 39.098-18.618 80.058-31.651 124.742-39.098 1.862 0 1.862 0 3.724 0 13.033-1.862 27.927-3.724 40.96-5.585 1.862 0 3.724 0 5.585 0 11.171-3.724 24.204-3.724 39.098-3.724 13.033 0 27.927 0 40.96 1.862 1.862 0 3.724 0 5.585 0 13.033 1.862 27.927 3.724 40.96 5.585 1.862 0 1.862 0 3.724 0 42.822 7.447 83.782 20.48 122.88 39.098 1.862 0 3.724 1.862 3.724 1.862 11.171 5.585 22.342 11.171 33.513 16.756 1.862 1.862 5.585 3.724 7.447 5.585 9.309 5.585 20.48 11.171 29.789 18.618 3.724 1.862 7.447 5.585 9.309 7.447 7.447 5.585 16.756 11.171 24.204 18.618 1.862 1.862 3.724 1.862 5.585 3.724l16.756 14.895c102.4 93.091 167.564 229.004 167.564 377.949zM37.236 448c0 262.516 212.247 474.764 474.764 474.764s474.764-212.247 474.764-474.764c0-141.498-61.44-268.102-160.116-355.607-5.585 3.724-11.171 7.447-16.756 9.309l-158.255 78.196c-14.895 7.447-22.342 20.48-22.342 37.236v55.855c3.724 3.724 7.447 9.309 11.171 14.895 20.48 27.927 37.236 61.44 48.407 94.953 24.204 11.171 39.098 35.375 39.098 61.44v65.164c0 16.756-5.585 31.651-16.756 44.684v89.367c1.862 9.309 3.724 63.302-35.375 109.847-33.513 37.236-89.367 57.716-163.84 57.716s-130.327-20.48-165.702-59.578c-39.098-44.684-35.375-98.676-35.375-109.847v-87.505c-11.171-13.033-16.756-27.927-16.756-44.684v-65.164c0-20.48 9.309-39.098 24.204-52.131 14.895-59.578 46.545-104.262 57.716-119.156v-53.993c0-14.895-7.447-29.789-22.342-37.236l-145.222-78.196c-5.585-1.862-9.309-5.585-14.895-9.309-94.953 87.505-156.393 214.109-156.393 353.745zM791.273 64.465c-5.585-5.585-13.033-9.309-20.48-13.033-3.724-1.862-5.585-3.724-9.309-5.585-9.309-5.585-18.618-11.171-26.065-14.895-1.862-1.862-3.724-1.862-5.585-3.724-20.48-11.171-42.822-20.48-65.164-27.927 0 0-1.862 0-1.862 0-11.171-3.724-24.204-7.447-35.375-11.171 0 0 0 0 0 0-11.171-3.724-24.204-5.585-37.236-7.447 0 0 0 0-1.862 0-11.171-1.862-22.342-3.724-35.375-3.724-1.862 0-3.724 0-5.585 0-11.171 0-22.342-1.862-35.375-1.862-11.171 0-24.204 0-35.375 1.862-1.862 0-3.724 0-5.585 0-11.171 1.862-24.204 1.862-35.375 3.724 0 0-1.862 0-1.862 0-24.204 3.724-48.407 9.309-72.611 18.618 0 0-1.862 0-1.862 0-11.171 3.724-24.204 9.309-35.375 13.033 0 0 0 0 0 0-11.171 3.724-20.48 9.309-31.651 14.895-1.862 0-1.862 1.862-3.724 1.862-9.309 5.585-18.618 11.171-27.927 16.756-1.862 1.862-5.585 3.724-7.447 5.585-9.309 5.585-16.756 11.171-24.204 16.756 0 0-1.862 1.862-1.862 1.862s1.862 0 1.862 1.862l147.084 80.058c26.065 13.033 40.96 40.96 40.96 68.887v67.025l-3.724 5.585c0 0-40.96 50.269-55.855 115.433l-3.724 7.447-7.447 3.724c-9.309 5.585-14.895 14.895-14.895 26.065v65.164c0 9.309 3.724 16.756 11.171 22.342l5.585 5.585v106.124c0 0-5.585 44.684 26.065 81.92 26.065 29.789 72.611 46.545 137.775 46.545 63.302 0 109.847-14.895 135.913-46.545 31.651-35.375 26.065-81.92 26.065-81.92v-106.124l5.585-5.585c7.447-5.585 11.171-14.895 11.171-22.342v-65.164c0-13.033-9.309-26.065-22.342-29.789l-9.309-3.724-3.724-9.309c-11.171-33.513-26.065-65.164-46.545-93.091-5.585-7.447-9.309-13.033-13.033-16.756l-3.724-5.585v-68.887c0-29.789 16.756-57.716 42.822-70.749l158.255-78.196c1.862 0 1.862-1.862 3.724-1.862-1.862-1.862-3.724-3.724-5.585-3.724z" />
<glyph unicode="&#xe917;" glyph-name="users" d="M1024 41.813v-63.147h-34.133v63.147c0 39.253-22.187 75.093-58.027 93.867l-165.547 71.68c-15.36 8.533-25.6 22.187-30.72 32.427s-5.12 20.48 1.707 30.72c5.12 8.533 15.36 15.36 27.307 15.36h117.76c1.707 0 40.96-3.413 69.973 8.533 6.827 3.413 8.533 8.533 8.533 10.24 1.707 5.12 0 10.24-1.707 13.653-34.133 47.787-112.64 172.373-114.347 302.080 0 6.827-6.827 172.373-174.080 174.080-27.307 0-51.2-5.12-73.387-13.653 3.413-18.773 1.707-32.427 1.707-35.84v-90.453c10.24-11.947 17.067-29.013 17.067-44.373v-68.267c0-27.307-15.36-51.2-39.253-61.44-11.947-35.84-29.013-68.267-51.2-98.987-3.413-6.827-8.533-11.947-11.947-17.067v-58.027c0-3.413 0-8.533 1.707-11.947 0-1.707 1.707-3.413 1.707-5.12s0-1.707 1.707-3.413c0 0 39.253-27.307 66.56-42.667l117.76-58.027c52.907-25.6 85.333-78.507 85.333-138.24v-69.973h-34.133v68.267c0 46.080-25.6 87.040-66.56 107.52l-163.84 81.92c-6.827 3.413-13.653 8.533-20.48 15.36v0l-3.413 5.12c-3.413 3.413-6.827 8.533-8.533 11.947 0 0 0 0 0 1.707-1.707 3.413-3.413 6.827-5.12 10.24 0 0 0 1.707 0 1.707-1.707 3.413-1.707 6.827-3.413 10.24 0 1.707 0 1.707 0 3.413 0 3.413-1.707 8.533-1.707 11.947v69.973l3.413 5.12c5.12 5.12 8.533 11.947 13.653 18.773 20.48 29.013 37.547 61.44 47.787 97.28l3.413 8.533 8.533 3.413c13.653 5.12 23.893 17.067 23.893 32.427v68.267c0 10.24-3.413 18.773-11.947 25.6l-6.827 5.12v109.227c0 0 0 1.707 0 6.827 0 0 0 0 0 0 0 1.707 0 1.707 0 3.413 0 0 0 0 0 1.707s0 3.413 0 5.12c0 0 0 0 0 0 0 1.707 0 3.413 0 6.827 0 1.707 0 1.707 0 3.413s0 1.707 0 3.413 0 1.707 0 3.413 0 1.707 0 3.413c-3.413 15.36-10.24 32.427-23.893 49.493-29.013 32.427-76.8 47.787-143.36 47.787s-114.347-17.067-143.36-47.787c-32.427-37.547-27.307-85.333-27.307-85.333v-107.52l-8.533-8.533c-6.827-6.827-11.947-15.36-11.947-25.6v-68.267c0-11.947 5.12-22.187 15.36-29.013l5.12-3.413 1.707-6.827c15.36-69.973 58.027-119.467 58.027-121.173l3.413-5.12v-68.267c0-29.013-15.36-56.32-40.96-69.973l-151.893-83.627c-37.547-18.773-61.44-59.733-61.44-104.107v-71.68h-34.133v71.68c0 56.32 30.72 107.52 80.213 134.827l151.893 83.627c13.653 8.533 23.893 23.893 23.893 39.253v56.32c-11.947 15.36-44.373 61.44-59.733 122.88-15.36 13.653-25.6 32.427-25.6 52.907v68.267c0 17.067 6.827 32.427 17.067 44.373v90.453c-1.707 11.947-5.12 68.267 35.84 114.347 35.84 39.253 92.16 59.733 168.96 59.733s134.827-20.48 168.96-59.733c11.947-13.653 20.48-27.307 25.6-42.667 25.6 8.533 52.907 13.653 81.92 15.36 201.387-1.707 208.213-206.507 208.213-208.213 1.707-119.467 76.8-238.933 109.227-283.307 8.533-11.947 11.947-29.013 6.827-42.667-3.413-15.36-15.36-27.307-29.013-32.427-37.547-15.36-81.92-11.947-85.333-11.947h-110.933c3.413-6.827 8.533-11.947 11.947-13.653l167.253-71.68c47.787-23.893 76.8-71.68 76.8-124.587z" />
<glyph unicode="&#xe918;" glyph-name="verification-mark" d="M325.818 220.977l-244.364 244.364-81.455-81.226 325.818-325.818 698.182 698.182-81.455 81.455-616.727-616.955z" />
<glyph unicode="&#xe919;" glyph-name="verification" d="M494.644 3.688c-10.414 0-22.563 0-32.976 1.736-1.736 0-3.471 0-5.207 0-10.414 1.736-22.563 1.736-32.976 3.471h-1.736c-22.563 3.471-45.125 8.678-67.688 17.356h-1.736c-10.414 3.471-22.563 8.678-32.976 12.149v0c-10.414 3.471-19.092 8.678-29.505 13.885-1.736 0-1.736 1.736-3.471 1.736-8.678 5.207-17.356 10.414-26.034 15.62-1.736 1.736-5.207 3.471-6.942 5.207-8.678 5.207-15.62 10.414-22.563 15.62l-1.736 1.736c0 0 1.736 0 1.736 1.736l137.112 74.631c24.298 12.149 38.183 38.183 38.183 64.217v62.481l-3.471 5.207c0 0-38.183 46.861-52.068 107.607l-3.471 8.678-5.207 3.471c-8.678 5.207-13.885 13.885-13.885 24.298v60.746c0 8.678 3.471 15.62 10.414 20.827l5.207 5.207v98.929c0 0-5.207 41.654 24.298 76.366 24.298 27.769 67.688 43.39 128.434 43.39 59.010 0 102.4-13.885 126.698-43.39 29.505-32.976 24.298-76.366 24.298-76.366v-98.929l5.207-5.207c6.942-5.207 10.414-13.885 10.414-20.827v-60.746c0-12.149-8.678-24.298-20.827-27.769-8.678-3.471-13.885-12.149-12.149-20.827 3.471-8.678 12.149-13.885 20.827-12.149 26.034 8.678 45.125 32.976 45.125 60.746v60.746c0 15.62-5.207 29.505-15.62 41.654v81.573c1.736 8.678 3.471 59.010-32.976 102.4-31.241 36.447-83.308 55.539-154.468 55.539s-121.492-19.092-154.468-55.539c-36.447-41.654-32.976-91.986-32.976-102.4v-81.573c-10.414-12.149-15.62-26.034-15.62-41.654v-60.746c0-19.092 8.678-36.447 22.563-48.597 13.885-55.539 43.39-97.193 53.803-111.078v-50.332c0-13.885-6.942-27.769-20.827-34.712l-137.112-74.631c-5.207-1.736-8.678-5.207-13.885-8.678-85.044 81.573-142.319 199.593-142.319 329.763 0 242.983 197.858 442.576 442.576 442.576s442.576-199.593 442.576-442.576c0-10.414 6.942-17.356 17.356-17.356s17.356 6.942 17.356 17.356c0 262.075-213.478 477.288-477.288 477.288s-477.288-215.214-477.288-477.288c0-138.847 59.010-263.81 154.468-352.325v0l15.62-13.885c1.736 0 1.736-1.736 3.471-1.736 8.678-6.942 17.356-13.885 26.034-19.092 3.471-1.736 5.207-3.471 8.678-5.207 8.678-6.942 19.092-12.149 27.769-17.356 1.736-1.736 3.471-1.736 6.942-3.471 10.414-5.207 20.827-12.149 32.976-17.356 0 0 1.736 0 1.736-1.736 36.447-17.356 74.631-29.505 116.285-36.447 1.736 0 1.736 0 3.471 0 12.149-1.736 26.034-3.471 38.183-5.207 1.736 0 3.471 0 5.207 0 12.149-1.736 26.034-1.736 38.183-1.736 10.414 0 17.356 6.942 17.356 17.356s-8.678 15.62-19.092 15.62zM619.607 172.041c-6.942 6.942-17.356 6.942-24.298 0s-6.942-17.356 0-24.298l138.847-138.847c3.471-3.471 6.942-5.207 12.149-5.207v0c5.207 0 8.678 1.736 12.149 5.207l242.983 277.695c6.942 6.942 5.207 17.356-1.736 24.298s-17.356 5.207-24.298-1.736l-230.834-262.075-124.963 124.963z" />
</font>
</defs>
</svg>
