<?xml version="1.0" standalone="no"?>
<!DOCTYPE svg PUBLIC "-//W3C//DTD SVG 20010904//EN"
 "http://www.w3.org/TR/2001/REC-SVG-20010904/DTD/svg10.dtd">
<svg version="1.0" xmlns="http://www.w3.org/2000/svg"
 width="700.000000pt" height="700.000000pt" viewBox="0 0 700.000000 700.000000"
 preserveAspectRatio="xMidYMid meet">
<metadata>
Created by potrace 1.11, written by Peter Selinger 2001-2013
</metadata>
<g transform="translate(0.000000,700.000000) scale(0.100000,-0.100000)"
fill="#000000" stroke="none">
<path d="M0 3500 l0 -3500 3500 0 3500 0 0 3500 0 3500 -3500 0 -3500 0 0
-3500z m3734 1924 c157 -27 358 -103 480 -182 347 -224 568 -553 637 -952 21
-121 16 -356 -9 -477 -39 -183 -103 -337 -204 -495 -84 -132 -160 -180 -283
-182 -164 -2 -297 119 -312 283 -7 76 12 137 76 239 106 171 145 332 122 504
-35 261 -180 467 -411 583 -118 59 -169 70 -335 70 -143 0 -154 -1 -238 -31
-123 -45 -189 -87 -287 -184 -149 -148 -209 -286 -217 -495 -5 -127 5 -197 47
-308 52 -139 82 -171 896 -987 630 -631 777 -784 794 -823 67 -151 8 -319
-139 -394 -54 -28 -73 -33 -134 -33 -137 0 -93 -38 -955 823 -426 425 -802
808 -837 852 -256 326 -349 751 -254 1158 126 535 583 957 1125 1036 102 15
341 12 438 -5z"/>
</g>
</svg>
